<svg width="90" height="87" viewBox="0 0 90 87" fill="none" xmlns="http://www.w3.org/2000/svg">
<g id="jquery-original">
<path id="Vector" d="M6.16504 20.4468C-1.73839 31.8057 -0.75449 46.5856 5.2829 58.6561C5.42622 58.9456 5.57671 59.2301 5.72505 59.5146L6.00739 60.0585L6.18367 60.3717L6.49826 60.9349C6.68601 61.2653 6.87806 61.5942 7.07441 61.9231L7.40333 62.4649C7.62118 62.8167 7.84405 63.1643 8.07193 63.5111L8.35713 63.9511C8.67172 64.4205 8.99348 64.8891 9.32598 65.3492L9.35393 65.385L9.51732 65.6057C9.80468 66.002 10.1006 66.3933 10.4002 66.7803L10.7327 67.2031C11 67.5391 11.2716 67.8731 11.5482 68.2056L11.8599 68.5782C12.2318 69.0171 12.6107 69.45 12.9964 69.8767L13.0201 69.9004L13.0638 69.9491C13.4429 70.3605 13.828 70.7664 14.219 71.1666L14.5894 71.5399C14.8926 71.8452 15.2007 72.1455 15.5117 72.4443L15.8894 72.8026C16.305 73.1946 16.7249 73.5787 17.1535 73.9542L17.1735 73.9699L17.3935 74.1577C17.7712 74.4845 18.1553 74.8091 18.5422 75.1273L19.0181 75.5063C19.3341 75.76 19.6537 76.0094 19.9754 76.2545L20.4871 76.6436C20.8425 76.9052 21.2001 77.1624 21.5613 77.4139L21.9526 77.6913L22.06 77.768C22.4026 78.0037 22.753 78.2309 23.1034 78.458L23.5549 78.759C24.0923 79.0987 24.637 79.4348 25.188 79.7594L25.6395 80.0138C26.0444 80.2474 26.4521 80.4767 26.8649 80.701C27.0885 80.8214 27.3178 80.9353 27.5428 81.0507C27.8344 81.2034 28.1239 81.3581 28.4206 81.5065L28.6234 81.6047L28.9824 81.7781C29.4418 81.9974 29.9047 82.2131 30.3727 82.4209L30.6665 82.5527C31.2029 82.7874 31.7435 83.0122 32.2881 83.227L32.683 83.3825C33.1875 83.5767 33.6991 83.7688 34.2129 83.9494L34.405 84.016C34.969 84.2131 35.5379 84.3958 36.1112 84.5743L36.5233 84.6975C37.1066 84.8731 37.6835 85.083 38.2847 85.1941C76.5076 92.1645 87.6107 62.2248 87.6107 62.2248C78.2855 74.3734 61.7334 77.5781 46.0505 74.0101C45.4565 73.8761 44.8803 73.6905 44.3006 73.5192L43.8642 73.3866C43.2993 73.2135 42.7374 73.0307 42.1787 72.8384L41.9473 72.7546C41.4491 72.5785 40.9536 72.3948 40.461 72.2035L40.0439 72.0394C39.5051 71.8266 38.969 71.6044 38.4395 71.3723L38.1191 71.2304C37.6656 71.0255 37.2143 70.8155 36.7655 70.6005L36.3742 70.4127C36.0224 70.2415 35.6741 70.0594 35.3273 69.8803C35.0951 69.7578 34.8586 69.6424 34.6286 69.5148C34.2063 69.2874 33.788 69.0528 33.3738 68.8111L32.9503 68.5746C32.4002 68.2499 31.8555 67.9162 31.3164 67.5735L30.8757 67.2797C30.4838 67.0284 30.0961 66.7706 29.7127 66.5065L29.3386 66.2435C28.9694 65.9825 28.6029 65.7176 28.2393 65.4488L27.7527 65.0805C27.4186 64.8265 27.088 64.5681 26.761 64.3051L26.3188 63.9504C25.9023 63.6089 25.4905 63.2618 25.0834 62.9092L24.948 62.7952C24.5094 62.4082 24.0765 62.0147 23.6495 61.615L23.2833 61.2631C22.9673 60.9621 22.6563 60.659 22.3503 60.348L21.9848 59.9833C21.5965 59.5859 21.2147 59.1822 20.8397 58.7722L20.7831 58.712C20.3879 58.2786 20.0006 57.8381 19.6214 57.3906L19.3176 57.0294C19.0343 56.6887 18.7555 56.3442 18.4813 55.9961L18.1753 55.6148C17.8475 55.1909 17.5257 54.7624 17.2101 54.3293C8.50332 42.4523 5.37463 26.0721 12.3336 12.62M30.6994 10.8758C24.9831 19.101 25.2941 30.1123 29.7528 38.8112C30.499 40.2735 31.3436 41.6835 32.281 43.0313C33.1373 44.2588 34.0868 45.7193 35.2234 46.7053C35.6389 47.1605 36.0667 47.6045 36.5061 48.0368L36.8443 48.37C37.2711 48.7861 37.7079 49.1918 38.1543 49.5868L38.2073 49.6326L38.2202 49.6455C38.7195 50.0803 39.2297 50.5025 39.7501 50.9118L40.0977 51.1826C40.621 51.5858 41.1546 51.9755 41.6979 52.3514L41.7445 52.3865C41.9852 52.5528 42.2303 52.7076 42.4747 52.8681L42.8208 53.0967C43.2106 53.3468 43.6055 53.5904 44.0068 53.8241L44.1752 53.9215C44.5213 54.1207 44.8717 54.3171 45.2236 54.5077L45.5969 54.7019C45.8398 54.8287 46.0828 54.9584 46.33 55.0817L46.4411 55.1319C46.9449 55.3798 47.4529 55.6191 47.9717 55.8449L48.31 55.9839C48.7249 56.1602 49.1441 56.3322 49.564 56.4927L50.1015 56.6898C50.4834 56.8316 50.8668 56.9606 51.2531 57.0903L51.7741 57.2573C52.3237 57.4279 52.8669 57.6436 53.4394 57.7389C82.9514 62.6283 89.7648 39.9054 89.7648 39.9054C83.6235 48.7505 71.7293 52.9713 59.0375 49.6763C58.4765 49.5288 57.919 49.3678 57.3657 49.1934L56.8634 49.0307C56.4713 48.9039 56.0816 48.7696 55.6946 48.628L55.1672 48.4316C54.7449 48.2695 54.3254 48.1004 53.9088 47.9243L53.5699 47.7809C53.0509 47.5551 52.5377 47.3164 52.0306 47.065C51.7705 46.9382 51.5146 46.8042 51.2581 46.6723L50.8124 46.443C50.4836 46.2648 50.158 46.0809 49.8356 45.8912L49.602 45.7587C49.2028 45.5259 48.8084 45.2851 48.4189 45.0363L48.062 44.7984C47.8049 44.6322 47.5496 44.4633 47.296 44.2918C46.755 43.9157 46.2231 43.5267 45.7008 43.1251L45.3418 42.8421C39.7867 38.4565 35.3824 32.4614 33.2892 25.6644C31.095 18.6159 31.568 10.7031 35.3695 4.2809M51.3341 3.72553C47.9646 8.68443 47.6335 14.8429 49.9718 20.3192C52.4376 26.133 57.4897 30.6928 63.3866 32.8562C63.6296 32.9458 63.8732 33.026 64.119 33.1099L64.4422 33.2124C64.7897 33.3213 65.1344 33.4481 65.4934 33.5162C81.789 36.665 86.209 25.1541 87.385 23.4594C83.5139 29.0338 77.0071 30.3717 69.0234 28.434C68.3928 28.2814 67.6999 28.0535 67.0922 27.8378C66.3115 27.5605 65.5459 27.2426 64.7983 26.8855C63.38 26.2026 62.0328 25.3807 60.7767 24.4318C53.6329 19.0107 49.195 8.67082 53.8565 0.25" fill="#0868AC"/>
</g>
</svg>
