<svg width="67" height="71" viewBox="0 0 67 71" fill="none" xmlns="http://www.w3.org/2000/svg">
<path d="M66.0448 60.5491C66.0448 65.8711 61.9538 70.1834 56.905 70.1834H9.37808C4.33108 70.1834 0.238281 65.8711 0.238281 60.5491V10.4509C0.238281 5.12895 4.33108 0.81665 9.37808 0.81665H56.905C61.9538 0.81665 66.0448 5.12895 66.0448 10.4509V60.5491Z" fill="#0078D4"/>
<path opacity="0.05" d="M44.1087 60.5491V41.0898C44.1087 37.8354 42.6116 35.8912 40.1018 35.8912C38.612 35.8912 37.517 36.7756 36.8498 38.5194C36.8188 38.6427 36.7749 39.1456 36.7932 40.6659L36.7968 60.5491H24.0011V23.9389H36.7968V25.9833C38.665 24.6249 40.9554 23.9389 43.6297 23.9389C51.9415 23.9389 56.9025 29.8987 56.9025 39.8817L56.9044 60.5491H44.1087ZM9.37744 60.5491V23.9389H15.6967C12.0353 23.9389 9.37744 21.1026 9.37744 17.193C9.37744 13.2873 12.0792 10.4509 15.8009 10.4509C19.4787 10.4509 22.0982 13.2083 22.1732 17.1545C22.1732 21.0929 19.4696 23.9389 15.7479 23.9389H22.1732V60.5491H9.37744Z" fill="#040F1A"/>
<path opacity="0.07" d="M45.0237 59.5857V41.0898C45.0237 37.2882 43.1391 34.9278 40.1028 34.9278C37.7356 34.9278 36.5657 36.6851 36.0027 38.1591C35.8528 38.5425 35.8729 40.0648 35.8802 40.7141L35.8839 59.5857H24.9162V24.9023H35.8839V28.0585C37.3371 26.4727 39.6769 24.9023 43.6308 24.9023C51.3685 24.9023 55.9896 30.5018 55.9896 39.8817L55.9915 59.5857H45.0237ZM10.2925 59.5857V24.9023H21.2602V59.5857H10.2925ZM15.6978 22.9755C12.5665 22.9755 10.2925 20.5438 10.2925 17.193C10.2925 13.8441 12.6103 11.4144 15.8019 11.4144C18.9533 11.4144 21.1963 13.7825 21.2602 17.1737C21.2602 20.5438 18.9424 22.9755 15.7489 22.9755H15.6978Z" fill="#040F1A"/>
<path d="M11.2061 25.8658H20.3458V58.6223H11.2061V25.8658ZM15.7485 22.0121H15.6973C12.97 22.0121 11.2061 19.8694 11.2061 17.193C11.2061 14.4588 13.0249 12.3778 15.8015 12.3778C18.5819 12.3778 20.2947 14.4588 20.3458 17.193C20.3458 19.8675 18.5819 22.0121 15.7485 22.0121ZM55.0771 58.6223H45.9373V41.0899C45.9373 36.8546 43.698 33.9643 40.1024 33.9643C37.3587 33.9643 35.8744 35.9143 35.1541 37.7988C34.8909 38.4732 34.9695 40.3384 34.9695 41.2806V58.6223H25.8297V25.8658H34.9695V30.9064C36.2875 28.7561 38.3512 25.8658 43.6304 25.8658C50.1708 25.8658 55.0752 30.2012 55.0752 39.8817L55.0771 58.6223Z" fill="white"/>
</svg>
