<svg width="77" height="87" viewBox="0 0 77 87" fill="none" xmlns="http://www.w3.org/2000/svg">
<g id="nodejs-original">
<path id="Vector" d="M73.8078 19.45L42.2077 1.10133C40.2148 -0.0337753 37.62 -0.0337753 35.6113 1.10133L3.6737 19.45C1.61704 20.6331 0.161621 22.8567 0.161621 25.2351V61.8837C0.161621 64.2621 1.65503 66.4865 3.71168 67.676L12.1497 72.4687C16.1827 74.4551 17.6081 74.4551 19.4433 74.4551C25.4148 74.4551 28.8258 70.8441 28.8258 64.5459V28.3645C28.8258 27.8536 28.5599 27.0933 28.0583 27.0933H24.0288C23.5186 27.0933 22.3764 27.8536 22.3764 28.3638V64.5452C22.3764 67.3371 19.851 70.1153 15.1315 67.7556L6.41256 62.73C6.10872 62.5652 5.89446 62.2334 5.89446 61.8837V25.2351C5.89446 24.8897 6.29217 24.5429 6.59816 24.3659L38.4326 6.04876C38.73 5.88036 39.1671 5.88036 39.4638 6.04876L70.9098 24.3616C71.2108 24.5429 71.1047 24.879 71.1047 25.2351V61.8837C71.1047 62.2334 71.2359 62.5738 70.9385 62.7422L39.3463 81.0701C39.0754 81.2327 38.7393 81.2327 38.4426 81.0701L30.34 76.2337C30.0956 76.0918 29.8054 76.0409 29.5711 76.1721C27.3166 77.4498 26.901 77.6196 24.7863 78.3527C24.266 78.534 23.4986 78.8486 25.0801 79.735L35.6844 86.0082C36.6968 86.5929 37.8453 86.9009 39.0145 86.9011C40.1911 86.9011 41.3434 86.5958 42.3589 86.0082L73.807 67.676C75.8637 66.4779 76.8383 64.2621 76.8383 61.8837V25.2351C76.8383 22.8567 75.8637 20.6388 73.8078 19.45ZM48.8262 56.0763C40.4233 56.0763 38.5723 53.7581 37.9553 49.5796C37.8837 49.1296 37.5017 48.5914 37.0438 48.5914H32.937C32.4289 48.5914 32.0204 49.2077 32.0204 49.7136C32.0204 55.0638 34.9291 61.5462 48.8269 61.5462C58.8873 61.5462 64.6553 57.6371 64.6553 50.719C64.6553 43.8597 60.021 42.0596 50.2644 40.7682C40.4025 39.4647 39.4007 38.8062 39.4007 36.4958C39.4007 34.5911 40.2492 32.0508 47.5514 32.0508C54.0761 32.0508 56.481 33.451 57.4706 37.8488C57.5552 38.2623 57.9328 38.559 58.3592 38.559H62.4826C62.7362 38.559 62.9784 38.4565 63.1562 38.2752C63.3281 38.0803 63.4192 37.8359 63.3962 37.5736C62.7577 30.0005 57.7264 26.4713 47.5507 26.4713C38.4992 26.4713 33.0996 30.2936 33.0996 36.7008C33.0996 43.6504 38.472 45.5709 47.1608 46.4301C57.5552 47.4491 58.3635 48.9683 58.3635 51.0128C58.3635 54.5636 55.5129 56.0763 48.8262 56.0763Z" fill="#83CD29"/>
</g>
</svg>
