<svg width="53" height="56" viewBox="0 0 53 56" fill="none" xmlns="http://www.w3.org/2000/svg">
<path d="M32.2416 9.51014C37.5055 7.91056 43.0029 7.73899 48.1452 8.97818C46.5888 7.56709 44.9152 6.30145 43.3905 5.4043L43.3902 5.4041C37.7939 2.10898 31.5132 0.897739 25.1947 1.88178C22.9762 2.2315 21.5109 2.63709 19.2296 3.56059C17.4956 4.26253 16.937 4.53014 15.664 5.28276L15.6613 5.28435C11.7532 7.5825 8.56261 10.7395 6.1413 14.7065C2.97191 19.9024 1.64651 26.2647 2.45747 32.3641L2.45757 32.3648C3.23723 38.2548 5.70576 43.4392 9.79262 47.7836L9.79397 47.785C10.6578 48.706 13.2494 51.0042 14.1291 51.6403C14.3145 51.7737 14.5003 51.9047 14.686 52.0329C14.5709 51.8148 14.4588 51.5966 14.3503 51.3795L14.3468 51.3724C13.733 50.1257 12.7884 47.6618 12.4122 46.3079L12.4117 46.3059C10.0067 37.5986 11.4745 28.5847 16.5241 21.1446L16.5244 21.1441C19.0986 17.3546 22.456 14.3023 26.7253 11.8613C27.2606 11.5539 28.3615 11.053 29.4093 10.6069C30.4647 10.1576 31.6057 9.70464 32.2393 9.51084L32.2416 9.51014Z" stroke="white" stroke-width="2.67603"/>
</svg>
