<?xml version="1.0" encoding="UTF-8" standalone="no"?>
<svg
   xmlns:dc="http://purl.org/dc/elements/1.1/"
   xmlns:cc="http://creativecommons.org/ns#"
   xmlns:rdf="http://www.w3.org/1999/02/22-rdf-syntax-ns#"
   xmlns:svg="http://www.w3.org/2000/svg"
   xmlns="http://www.w3.org/2000/svg"
   viewBox="0 0 1600 1600"
   height="1600"
   width="1600"
   xml:space="preserve"
   id="svg2"
   version="1.1"><metadata
     id="metadata8"><rdf:RDF><cc:Work
         rdf:about=""><dc:format>image/svg+xml</dc:format><dc:type
           rdf:resource="http://purl.org/dc/dcmitype/StillImage" /></cc:Work></rdf:RDF></metadata><defs
     id="defs6" /><g
     transform="matrix(1.3333333,0,0,-1.3333333,0,1600)"
     id="g10"><g
       transform="scale(0.1)"
       id="g12"><path
         id="path14"
         style="fill:#a3a5a7;fill-opacity:1;fill-rule:nonzero;stroke:none"
         d="m 6114.79,2846.48 v 1473.07 l 54.7,38.4 v 328.24 h -109.41 -109.41 v -328.24 l 54.71,-38.4 V 2846.48 h -175.02 v -173.31 h 229.72 229.73 v 173.31 h -175.02" /><path
         id="path16"
         style="fill:#3a3a3c;fill-opacity:1;fill-rule:nonzero;stroke:none"
         d="m 6289.81,2332.76 v 340.41 h -459.45 v -340.41 l -65.05,-102.71 c -34.33,-54.2 -52.55,-117.03 -52.55,-181.18 V 1094.5 c 0,-61.3 49.7,-111 111,-111 h 236.32 236.32 c 61.31,0 111,49.7 111,111 v 954.37 c 0,64.15 -18.22,126.98 -52.54,181.18 l -65.05,102.71" /><path
         id="path18"
         style="fill:#f6c628;fill-opacity:1;fill-rule:nonzero;stroke:none"
         d="m 5991.28,1113.4 h -129.97 v 990.35 h 129.97 V 1113.4" /><path
         id="path20"
         style="fill:#f6c628;fill-opacity:1;fill-rule:nonzero;stroke:none"
         d="m 6128.88,1113.4 h 129.98 v 990.35 H 6128.88 V 1113.4" /><path
         id="path22"
         style="fill:#f6c628;fill-opacity:1;fill-rule:nonzero;stroke:none"
         d="m 3274.11,8705.9 364.7,-224.43 c 30.33,-18.67 39.05,-58.66 19.46,-88.4 -91.51,-138.84 -321.36,-525.74 -321.36,-909.11 0,-314.46 85.49,-619.43 144.14,-791.64 28.23,-82.9 -9.69,-173.78 -88.84,-211.27 v 0 c -94.89,-44.95 -208.08,4.75 -237.94,105.42 -90.57,305.33 -205.57,953.77 122.17,1703.74 42.11,96.34 30.76,207.77 -30.57,293.18 l -37.38,52.07 c -9.18,12.79 -11.67,29.21 -6.69,44.15 v 0 c 10,30.02 45.36,42.87 72.31,26.29" /><path
         id="path24"
         style="fill:#8e9194;fill-opacity:1;fill-rule:nonzero;stroke:none"
         d="m 4046.86,8978.15 c 10.39,26.28 16.28,54.83 16.28,84.8 0,35.86 -8.41,69.68 -22.99,99.97 l 75.27,260.76 c 30.25,104.79 23.72,216.77 -18.52,317.33 l -165.8,394.79 h -66.02 c 0,0 0.46,-141.52 0.99,-342.07 59.04,-15.19 102.86,-68.31 102.86,-132.09 0,-63.55 -43.52,-116.48 -102.23,-131.89 0.17,-77.68 0.33,-158.22 0.46,-238.67 -11.47,1.75 -23.13,2.94 -35.09,2.94 -11.96,0 -23.62,-1.19 -35.09,-2.94 0.13,80.45 0.29,160.98 0.45,238.67 -58.71,15.41 -102.23,68.34 -102.23,131.89 0,63.78 43.83,116.9 102.87,132.09 0.52,200.55 0.99,342.07 0.99,342.07 h -66.02 l -165.81,-394.79 c -42.23,-100.56 -48.77,-212.54 -18.52,-317.33 l 75.27,-260.76 c -14.58,-30.29 -22.98,-64.11 -22.98,-99.97 0,-29.97 5.88,-58.52 16.27,-84.79 l -192.33,-366.35 210.06,-127.53 161.63,340.97 c 0,3.15 0,6.46 0,9.63 11.58,-1.79 23.35,-3 35.44,-3 12.08,0 23.86,1.21 35.44,3 -0.01,-3.17 -0.01,-6.48 -0.01,-9.63 l 161.64,-340.97 210.05,127.53 -192.33,366.34" /><path
         id="path26"
         style="fill:#f6c628;fill-opacity:1;fill-rule:nonzero;stroke:none"
         d="m 4390.03,8705.9 -364.7,-224.43 c -30.33,-18.67 -39.06,-58.66 -19.46,-88.4 91.5,-138.84 321.35,-525.74 321.35,-909.11 0,-314.46 -85.49,-619.43 -144.13,-791.64 -28.24,-82.9 9.69,-173.78 88.83,-211.27 v 0 c 94.9,-44.95 208.08,4.75 237.94,105.42 90.57,305.33 205.57,953.77 -122.17,1703.74 -42.1,96.34 -30.75,207.77 30.57,293.18 l 37.38,52.07 c 9.19,12.79 11.68,29.21 6.7,44.15 v 0 c -10.01,30.02 -45.37,42.87 -72.31,26.29" /><path
         id="path28"
         style="fill:#3a3a3c;fill-opacity:1;fill-rule:nonzero;stroke:none"
         d="m 3965.07,9071.78 c 0,-73.46 -59.55,-133.01 -133,-133.01 -73.46,0 -133.01,59.55 -133.01,133.01 0,73.46 59.55,133 133.01,133 73.45,0 133,-59.54 133,-133" /><path
         id="path30"
         style="fill:#3a3a3c;fill-opacity:1;fill-rule:nonzero;stroke:none"
         d="m 590.586,10126.4 c 272.453,694.4 1000.794,720.7 1000.794,720.7 h 368.91 c 23.18,0 44.04,-13.1 54.98,-33.6 44.07,-82.3 130.69,-138.4 230.62,-138.4 99.92,0 186.54,56.1 230.61,138.4 10.94,20.5 31.8,33.6 54.98,33.6 h 333.08 c 19.79,0 35.83,-16.1 35.83,-35.9 v -531.9 c 0,-19.8 -16.04,-35.8 -35.83,-35.8 h -333.08 c -23.18,0 -44.04,13.1 -54.98,33.5 -44.07,82.4 -130.69,138.5 -230.61,138.5 -7.61,0 -15.13,-0.4 -22.57,-1 -128.13,-11 -223.09,-125 -223.09,-253.6 V 10061.7 7089 h -408.85 v 2972.7 181.8 c -244.01,312.1 -740.439,-4.6 -946.759,-158.8 -28.558,-21.3 -67.055,8.5 -54.035,41.7" /><path
         id="path32"
         style="fill:#be1c2d;fill-opacity:1;fill-rule:nonzero;stroke:none"
         d="m 1559.49,6613.27 v 1252.1 h 472.64 v -1252.1 c 39.28,-18.18 66.68,-57.68 66.68,-103.8 0,-63.28 -51.3,-114.59 -114.59,-114.59 h -376.83 c -63.28,0 -114.59,51.31 -114.59,114.59 0,46.12 27.41,85.62 66.69,103.8" /><path
         id="path34"
         style="fill:#be1c2d;fill-opacity:1;fill-rule:nonzero;stroke:none"
         d="m 11114.3,9639.17 h -429.5 c -137.8,0 -249.6,111.72 -249.6,249.54 v 641.19 c 0,137.9 111.8,249.6 249.6,249.6 h 429.5 z m 20.3,1387.23 H 9632.66 c -64.18,0 -116.21,-52 -116.21,-116.2 v -784.1 l 5.94,-6.7 c 44.62,-48.2 332.74,-360.23 411.34,-462.4 l 252.57,-283.91 c 22.1,-24.79 53.6,-38.97 86.8,-38.97 h 861.5 c 121.2,0 219.4,98.25 219.4,219.45 V 10807 c 0,121.2 -98.2,219.4 -219.4,219.4" /><path
         id="path36"
         style="fill:#505256;fill-opacity:1;fill-rule:nonzero;stroke:none"
         d="m 4570.29,10910.2 h 4946.16 v -784.4 c 0,0 464.84,-501.16 435.78,-501.16 -29.05,0 -355.89,-384.94 -355.89,-384.94 l -72.63,203.36 -159.79,-152.52 -87.15,196.1 -138,-174.31 -87.16,203.36 -159.79,-167.05 -79.89,203.37 -152.53,-152.53 -94.42,196.11 -145.26,-174.32 -65.37,217.9 -152.52,-181.58 -87.16,225.16 -152.52,-174.32 -94.42,203.37 -145.26,-159.79 -87.16,203.37 -159.79,-174.32 -65.37,210.63 -148.24,-159.79 -84.18,181.58 -167.05,-152.52 -79.89,196.1 -145.26,-159.79 -79.9,203.37 -181.57,-159.79 -65.37,196.1 -152.53,-181.57 -94.42,210.63 -145.26,-167.06 -87.16,203.35 -159.78,-167.03 -79.9,203.33 -167.05,-167.01 -65.37,203.31 -145.26,-152.47 -94.42,196.07 -145.26,-152.49 -87.16,196.09 -145.26,-159.8 -79.89,196.1 -159.79,-123.5 -79.89,145.3 v 690" /><path
         id="path38"
         style="fill:#7a7c81;fill-opacity:1;fill-rule:nonzero;stroke:none"
         d="m 9894.13,10779.5 c 0,-48.2 -39.02,-87.2 -87.16,-87.2 -48.13,0 -87.16,39 -87.16,87.2 0,48.1 39.03,87.1 87.16,87.1 48.14,0 87.16,-39 87.16,-87.1" /><path
         id="path40"
         style="fill:#7a7c81;fill-opacity:1;fill-rule:nonzero;stroke:none"
         d="m 9894.13,10267.4 c 0,-48.1 -39.02,-87.1 -87.16,-87.1 -48.13,0 -87.16,39 -87.16,87.1 0,48.2 39.03,87.2 87.16,87.2 48.14,0 87.16,-39 87.16,-87.2" /><path
         id="path42"
         style="fill:#dca918;fill-opacity:1;fill-rule:nonzero;stroke:none"
         d="M 2193.85,2570.48 H 1190.61 v 264.35 h 1003.24 v -264.35" /><path
         id="path44"
         style="fill:#f6c628;fill-opacity:1;fill-rule:nonzero;stroke:none"
         d="m 1692.23,1437.8 c -46.69,0 -84.53,37.8 -84.53,84.5 0,46.7 37.84,84.5 84.53,84.5 46.69,0 84.54,-37.8 84.54,-84.5 0,-46.7 -37.85,-84.5 -84.54,-84.5 z m 501.62,1132.68 v 0 H 1190.61 v 0 c 0,-53.14 34.35,-100.99 85.42,-115.69 90.95,-26.19 193.57,-79.28 227.8,-186.87 66.07,-207.64 -99.28,-396.42 -99.28,-684.22 0,-246.8 114.23,-439.9 198.73,-549 45.15,-58.298 132.75,-58.298 177.91,0 84.49,109.1 198.72,302.2 198.72,549 0,287.8 -165.35,476.58 -99.28,684.22 34.23,107.59 136.85,160.68 227.81,186.87 51.06,14.7 85.41,62.55 85.41,115.69" /><path
         id="path46"
         style="fill:#babbbc;fill-opacity:1;fill-rule:nonzero;stroke:none"
         d="m 2407.5,3698.72 c 0,0 -115.38,42.07 -313.31,72.21 -51.37,-232.86 -110.55,-607.58 -110.55,-607.58 10.42,156.26 56.76,517.37 69.28,613.48 -62.72,8.48 -132.27,15.65 -208.68,19.86 -9.44,-153.97 -47.7,-307.42 -47.7,-307.42 18.29,102.46 14.39,226.82 8.49,309.09 -36.44,1.49 -73.74,2.54 -112.8,2.54 -71.85,0 -138.95,-2.95 -201.72,-7.58 6.56,-201.05 -17.95,-435.04 -13.86,-475.45 -11.37,153.94 -65.61,344.03 -104.38,464.14 -247.76,-29.51 -395.305,-83.29 -395.305,-83.29 232.225,-362.27 213.645,-863.89 213.645,-863.89 h 501.62 501.62 c 0,0 -18.58,501.62 213.65,863.89" /><path
         id="path48"
         style="fill:#3a3a3c;fill-opacity:1;fill-rule:nonzero;stroke:none"
         d="m 3681.26,2663.18 h -140.01 v 356.26 c 0,157.41 87.28,299.27 227.78,370.24 l 1319.98,666.5 c 57,28.78 92.4,86.32 92.4,150.17 v 557.07 c 0,92.75 -75.46,168.21 -168.22,168.21 h -232.72 v 140.02 h 232.72 c 169.96,0 308.23,-138.28 308.23,-308.23 v -557.07 c 0,-117.01 -64.88,-222.43 -169.31,-275.14 L 3832.15,3264.7 c -93.07,-47 -150.89,-141 -150.89,-245.26 v -356.26" /><path
         id="path50"
         style="fill:#39aa9b;fill-opacity:1;fill-rule:nonzero;stroke:none"
         d="m 3611.25,2315.76 c -43.49,0 -78.75,35.26 -78.75,78.76 0,43.49 35.26,78.75 78.75,78.75 43.5,0 78.76,-35.26 78.76,-78.75 0,-43.5 -35.26,-78.76 -78.76,-78.76 z M 3871.08,1211.7 v 1396.25 c 0,57.42 -46.54,103.96 -103.96,103.96 h -311.73 c -57.42,0 -103.96,-46.54 -103.96,-103.96 V 1211.7 c -50.36,-16.8 -86.42,-64.9 -83.76,-121.5 3.11,-66.4 62.05,-116.598 128.49,-116.598 h 430.19 c 66.44,0 125.38,50.198 128.49,116.598 2.66,56.6 -33.4,104.7 -83.76,121.5" /><path
         id="path52"
         style="fill:#8e9194;fill-opacity:1;fill-rule:nonzero;stroke:none"
         d="M 4775.86,4465.75 H 1975.71 c -56.36,0 -102.05,45.69 -102.05,102.05 v 867.68 c 0,56.36 45.69,102.05 102.05,102.05 h 2800.15 c 56.36,0 102.05,-45.69 102.05,-102.05 V 4567.8 c 0,-56.36 -45.69,-102.05 -102.05,-102.05" /><path
         id="path54"
         style="fill:#3a3a3c;fill-opacity:1;fill-rule:nonzero;stroke:none"
         d="m 9106.43,7761.89 c 13.76,66.61 21.04,135.59 21.04,206.28 0,156.42 -35.48,304.53 -98.73,436.83 l 65.7,73.04 c 25.54,28.38 23.22,72.09 -5.16,97.62 l -531.83,478.39 c -28.38,25.53 -72.09,23.21 -97.62,-5.17 l -89.53,-99.53 c -82.07,21.43 -168.15,32.92 -256.94,32.92 -560.07,0 -1014.1,-454.03 -1014.1,-1014.1 0,-560.08 454.03,-1014.11 1014.1,-1014.11 h 1193.43 v 807.83 h -200.36" /><path
         id="path56"
         style="fill:#f6c628;fill-opacity:1;fill-rule:nonzero;stroke:none"
         d="m 8748.39,7968.17 c 0,-350.72 -284.31,-635.04 -635.03,-635.04 -350.72,0 -635.03,284.32 -635.03,635.04 0,350.71 284.31,635.03 635.03,635.03 350.72,0 635.03,-284.32 635.03,-635.03" /><path
         id="path58"
         style="fill:#3a3a3c;fill-opacity:1;fill-rule:nonzero;stroke:none"
         d="m 8280.3,7968.17 c 0,-92.2 -74.74,-166.95 -166.94,-166.95 -92.2,0 -166.94,74.75 -166.94,166.95 0,92.19 74.74,166.94 166.94,166.94 92.2,0 166.94,-74.75 166.94,-166.94" /><path
         id="path60"
         style="fill:#a3a5a7;fill-opacity:1;fill-rule:nonzero;stroke:none"
         d="m 9306.79,6954.06 h 1022.71 l 196.7,166.66 H 9306.79 v -166.66" /><path
         id="path62"
         style="fill:#65686c;fill-opacity:1;fill-rule:nonzero;stroke:none"
         d="M 6821.01,5452.17 H 5555.2 c -16.16,0 -29.26,13.1 -29.26,29.26 v 21.58 c 0,16.16 13.1,29.27 29.26,29.27 h 1265.81 v -80.11" /><path
         id="path64"
         style="fill:#505256;fill-opacity:1;fill-rule:nonzero;stroke:none"
         d="m 7041.37,5751.92 -260.41,-157.35 v -204.69 l 260.41,-157.35 1.14,0.85 h 608.04 v 518.54 h -609.18" /><path
         id="path66"
         style="fill:#39aa9b;fill-opacity:1;fill-rule:nonzero;stroke:none"
         d="m 8023.42,5880.51 v -766.97 c 0,-40.21 13.79,-79.21 39.05,-110.49 l 481.42,-596.04 c 33.39,-41.34 83.67,-65.36 136.81,-65.36 h 1376.4 c 79.8,0 151.6,-48.34 181.6,-122.23 l 509.8,-1254.78 c 19.4,-47.69 65.7,-78.89 117.2,-78.89 h 419.8 c 78.4,0 138,70.69 124.6,148.01 l -456.7,2648 h 136.5 v 288.67 H 9579.41 l -149.97,169.53 c -37.72,42.64 -91.91,67.05 -148.84,67.05 h -872.74 c -36.96,0 -72.99,-11.65 -102.96,-33.29 l -208.58,-150.65 c -45.78,-33.06 -72.9,-86.09 -72.9,-142.56" /><path
         id="path68"
         style="fill:#3a3a3c;fill-opacity:1;fill-rule:nonzero;stroke:none"
         d="m 8341.9,5142.39 c 0,-50.26 -40.74,-91 -90.99,-91 -50.26,0 -91,40.74 -91,91 0,50.25 40.74,90.99 91,90.99 50.25,0 90.99,-40.74 90.99,-90.99" /><path
         id="path70"
         style="fill:#3a3a3c;fill-opacity:1;fill-rule:nonzero;stroke:none"
         d="m 8023.42,5570.06 h 2949.28 l -19.3,111.7 H 8023.42 v -111.7" /><path
         id="path72"
         style="fill:#d2d3d2;fill-opacity:1;fill-rule:nonzero;stroke:none"
         d="m 10993.1,5451.77 h -640.2 l 20,-81.9 h 634.3 l -14.1,81.9" /><path
         id="path74"
         style="fill:#d2d3d2;fill-opacity:1;fill-rule:nonzero;stroke:none"
         d="m 11018.2,5305.9 h -629.6 l 20.1,-81.89 h 623.7 l -14.2,81.89" /><path
         id="path76"
         style="fill:#d2d3d2;fill-opacity:1;fill-rule:nonzero;stroke:none"
         d="m 11043.4,5160.03 h -619 l 20.1,-81.89 h 613 l -14.1,81.89" /><path
         id="path78"
         style="fill:#d2d3d2;fill-opacity:1;fill-rule:nonzero;stroke:none"
         d="m 11068.6,5014.17 h -608.4 l 20.1,-81.9 h 602.4 l -14.1,81.9" /><path
         id="path80"
         style="fill:#297d70;fill-opacity:1;fill-rule:nonzero;stroke:none"
         d="m 10238.7,4219.43 v 0 h -235.3 c -19.27,0 -28.14,-23.92 -13.34,-36.21 72.94,-60.61 206.74,-195.52 240.24,-391.41 5.9,-34.53 36.7,-59.31 71.7,-59.31 h 134.5 l -197.8,486.93" /><path
         id="path82"
         style="fill:#3a3a3c;fill-opacity:1;fill-rule:nonzero;stroke:none"
         d="m 11010.9,4058.05 c 0,-113.47 -91.9,-205.45 -205.4,-205.45 -113.5,0 -205.5,91.98 -205.5,205.45 0,113.47 92,205.46 205.5,205.46 113.5,0 205.4,-91.99 205.4,-205.46" /><path
         id="path84"
         style="fill:#3a3a3c;fill-opacity:1;fill-rule:nonzero;stroke:none"
         d="m 7524.22,5078.14 h 499.2 v 829.02 h -499.2 v -829.02" /><path
         id="path86"
         style="fill:#39aa9b;fill-opacity:1;fill-rule:nonzero;stroke:none"
         d="M 5712.7,8456.27 V 6985.75 c 0,-31.94 -12.24,-62.67 -34.21,-85.86 l -150.26,-158.61 c -14.36,-15.16 -19.85,-36.71 -14.04,-56.76 21.94,-75.68 96.52,-253.36 313.25,-253.36 275.37,0 344.21,229.47 344.21,349.95 V 8731.63 L 5712.7,8456.27" /><path
         id="path88"
         style="fill:#8e9194;fill-opacity:1;fill-rule:nonzero;stroke:none"
         d="m 5759.1,8484.11 v 815.47 l 366.66,-252.42 V 8704.1 L 5759.1,8484.11" /><path
         id="path90"
         style="fill:#1c4b44;fill-opacity:1;fill-rule:nonzero;stroke:none"
         d="m 5999.54,7657.78 v 970.59 l -103.26,-61.96 v -908.63 c -35.82,-18.73 -60.53,-55.81 -60.53,-99.03 v -256.9 c 0,-61.95 50.22,-112.17 112.16,-112.17 61.95,0 112.17,50.22 112.17,112.17 v 256.9 c 0,43.22 -24.71,80.3 -60.54,99.03" /><path
         id="path92"
         style="fill:#3a3a3c;fill-opacity:1;fill-rule:nonzero;stroke:none"
         d="m 6011.02,6849.95 v 181.29 h -126.21 v -181.29 h -253.63 l -102.95,-108.67 c -14.36,-15.16 -19.85,-36.71 -14.04,-56.76 21.94,-75.68 96.52,-253.36 313.25,-253.36 275.37,0 344.21,229.47 344.21,349.95 v 68.84 h -160.63" /><path
         id="path94"
         style="fill:#7a7c81;fill-opacity:1;fill-rule:nonzero;stroke:none"
         d="m 8138.68,991 h -860.72 v 1479.33 h 860.72 V 991" /><path
         id="path96"
         style="fill:#f6c628;fill-opacity:1;fill-rule:nonzero;stroke:none"
         d="m 8138.68,2288.45 299.79,-144.14 c 64.7,-31.11 141.77,-19.7 194.3,29.23 198.86,185.27 763.2,614.93 1720.13,614.93 v 103.45 c 0,0 -797.49,87.88 -1827.7,-421.59 h -386.52 v -181.88" /><path
         id="path98"
         style="fill:#65686c;fill-opacity:1;fill-rule:nonzero;stroke:none"
         d="m 7499.3,2318.63 c 0,-35.71 -28.94,-64.66 -64.65,-64.66 -35.71,0 -64.66,28.95 -64.66,64.66 0,35.71 28.95,64.65 64.66,64.65 35.71,0 64.65,-28.94 64.65,-64.65" /><path
         id="path100"
         style="fill:#65686c;fill-opacity:1;fill-rule:nonzero;stroke:none"
         d="m 7499.3,1142.7 c 0,35.7 -28.94,64.6 -64.65,64.6 -35.71,0 -64.66,-28.9 -64.66,-64.6 0,-35.7 28.95,-64.7 64.66,-64.7 35.71,0 64.65,29 64.65,64.7" /><path
         id="path102"
         style="fill:#7a7c81;fill-opacity:1;fill-rule:nonzero;stroke:none"
         d="m 7680.36,2756.98 c -79.08,0 -147.89,-43.56 -184.04,-107.93 h 102.13 v -186.94 h 163.82 v 186.94 h 102.13 c -36.15,64.37 -104.96,107.93 -184.04,107.93" /><path
         id="path104"
         style="fill:#f6c628;fill-opacity:1;fill-rule:nonzero;stroke:none"
         d="m 9962.57,1321.7 h -1295 v 292.9 c 0,0 694.88,212.4 953.3,186.6 173.57,-17.4 268.13,-117.6 311.51,-181.6 20.12,-29.6 30.19,-64.9 30.19,-100.7 z m -251.98,815.89 c -370.69,17.51 -765.1,-85.54 -981.14,-153.89 -109.09,-34.5 -227.4,-22.2 -326.91,34.31 l -263.86,149.75 -492.82,-172.46 v -521.5 h 492.82 V 991 h 2149.52 v 502.2 c 0,0 -30.2,618.52 -577.61,644.39" /></g></g></svg>