<svg width="68" height="71" viewBox="0 0 68 71" fill="none" xmlns="http://www.w3.org/2000/svg">
<path d="M33.8041 0.81665C15.343 0.81665 0.370117 16.7387 0.370117 36.3768C0.370117 52.0885 9.94895 65.4176 23.2362 70.1205C24.9051 70.4494 25.4456 69.347 25.4456 68.4106V61.7905C16.1454 63.9419 14.209 57.5944 14.209 57.5944C12.6877 53.4842 10.495 52.3908 10.495 52.3908C7.4609 50.1831 10.7263 50.2305 10.7263 50.2305C14.0836 50.4794 15.85 53.8961 15.85 53.8961C18.8312 59.3309 23.6708 57.7604 25.5793 56.8506C25.8774 54.554 26.7439 52.9834 27.7024 52.0974C20.2773 51.1936 12.4704 48.1443 12.4704 34.5218C12.4704 30.6368 13.7771 27.466 15.9141 24.9768C15.5686 24.0789 14.4235 20.4607 16.2401 15.5652C16.2401 15.5652 19.0486 14.611 25.4372 19.2102C28.1036 18.4219 30.9622 18.0278 33.8041 18.013C36.646 18.0278 39.5074 18.4219 42.1793 19.2102C48.5624 14.611 51.3653 15.5652 51.3653 15.5652C53.1846 20.4637 52.0395 24.0819 51.694 24.9768C53.8394 27.466 55.1349 30.6398 55.1349 34.5218C55.1349 48.1798 47.3142 51.1876 39.8696 52.0678C41.0676 53.1701 42.1626 55.3334 42.1626 58.6523V68.4106C42.1626 69.3559 42.6975 70.4672 44.3943 70.1175C57.6703 65.4088 67.238 52.0826 67.238 36.3768C67.238 16.7387 52.268 0.81665 33.8041 0.81665Z" fill="#040F1A"/>
</svg>
