<svg width="63" height="93" viewBox="0 0 63 93" fill="none" xmlns="http://www.w3.org/2000/svg">
<g id="figma-original">
<path id="Vector" d="M16.303 92.6919C24.8306 92.6919 31.71 85.8125 31.71 77.2849V61.8779H16.303C7.7754 61.8779 0.895996 68.7573 0.895996 77.2849C0.895996 85.8125 7.7754 92.6919 16.303 92.6919Z" fill="#0ACF83"/>
<path id="Vector_2" d="M0.895996 46.4711C0.895996 37.9435 7.7754 31.0641 16.303 31.0641H31.71V61.8781H16.303C7.7754 61.8781 0.895996 54.9987 0.895996 46.4711Z" fill="#A259FF"/>
<path id="Vector_3" d="M0.895996 15.657C0.895996 7.1294 7.7754 0.25 16.303 0.25H31.71V31.064H16.303C7.7754 31.064 0.895996 24.1846 0.895996 15.657Z" fill="#F24E1E"/>
<path id="Vector_4" d="M31.71 0.25H47.117C55.6445 0.25 62.5239 7.1294 62.5239 15.657C62.5239 24.1846 55.6445 31.064 47.117 31.064H31.71V0.25Z" fill="#FF7262"/>
<path id="Vector_5" d="M62.5239 46.4711C62.5239 54.9987 55.6445 61.8781 47.117 61.8781C38.5894 61.8781 31.71 54.9987 31.71 46.4711C31.71 37.9435 38.5894 31.0641 47.117 31.0641C55.6445 31.0641 62.5239 37.9435 62.5239 46.4711Z" fill="#1ABCFE"/>
</g>
</svg>
