<svg width="79" height="90" viewBox="0 0 79 90" fill="none" xmlns="http://www.w3.org/2000/svg">
<g id="html5-original">
<path id="Vector" d="M7.16963 80.6638L0 0.25H78.7806L71.6031 80.6516L39.3423 89.5948L7.16963 80.6638Z" fill="#E44D26"/>
<path id="Vector_2" d="M39.3896 82.7591L65.4583 75.5314L71.5917 6.82483H39.3896V82.7591Z" fill="#F16529"/>
<path id="Vector_3" d="M39.3904 36.6491H26.3396L25.4381 26.5493H39.3904V16.6874H14.6597L14.8961 19.3331L17.3197 46.5117H39.3904V36.6491ZM39.3904 62.2627L39.3467 62.2749L28.3633 59.3081L27.6617 51.4434H17.7604L19.142 66.9285L39.3453 72.5367L39.3904 72.5245V62.2627Z" fill="#EBEBEB"/>
<path id="Vector_4" d="M39.3555 36.6491V46.5117H51.4998L50.3553 59.3024L39.3555 62.2713V72.5324L59.5745 66.9285L59.7228 65.2624L62.0403 39.2977L62.2804 36.6491H59.6232H39.3555ZM39.3555 16.6874V26.5493H63.1783L63.376 24.3335L63.8261 19.3331L64.0618 16.6874H39.3555Z" fill="white"/>
</g>
</svg>
