<svg width="90" height="90" viewBox="0 0 90 90" fill="none" xmlns="http://www.w3.org/2000/svg">
<g id="javascript-plain">
<path id="Vector" d="M-0.00683594 0.25V89.8255H89.5687V0.25H-0.00683594ZM47.3743 76.5777C46.0522 79.2642 43.5283 81.0292 40.6039 81.8813C36.11 82.9132 31.8118 82.3249 28.6143 80.4058C26.4746 79.093 24.8034 77.0721 23.6691 74.7439L30.4911 70.5661C30.5506 70.5912 30.7298 70.9151 30.9691 71.3336C31.8391 72.7911 32.5893 73.8231 34.0641 74.5475C35.5131 75.042 38.6941 75.358 39.9224 72.8083C40.6726 71.5113 40.434 67.3421 40.434 62.7293C40.4333 55.4809 40.467 48.2625 40.467 41.0964H48.8577C48.8577 48.9791 48.9007 56.4447 48.8577 64.1367C48.8756 68.852 49.2848 73.0556 47.3743 76.5777ZM82.1827 74.2072C79.2661 84.1837 63.0049 84.5076 56.5067 77.9163C55.1337 76.3648 54.2731 75.5544 53.454 73.7636C56.9073 71.7771 56.9073 71.7771 60.2675 69.833C62.0927 72.6385 63.7803 74.1814 66.8165 74.8127C70.9356 75.3157 75.0797 73.9004 74.1503 69.5256C73.195 65.9526 65.7158 65.0833 60.6258 61.2624C55.4583 57.7919 54.2473 49.3589 58.4939 44.5404C59.9092 42.7583 62.3227 41.4282 64.8552 40.789L67.498 40.4472C72.5723 40.3447 75.744 41.6848 78.0722 44.2846C78.72 44.941 79.2489 45.649 80.2378 47.1833C77.5348 48.906 77.5434 48.8895 73.6716 51.3962C72.8446 49.6147 71.4723 48.4968 70.0219 48.011C67.7703 47.3288 64.9311 48.0704 64.3421 50.4496C64.1378 51.1827 64.1801 51.8649 64.5048 53.0759C65.417 55.1562 68.4783 56.0606 71.2244 57.3225C79.1292 60.5286 81.7986 63.9662 82.455 68.058C83.087 71.5808 82.3023 73.8661 82.1827 74.2072Z" fill="#F0DB4F"/>
</g>
</svg>
