<svg width="92" height="92" viewBox="0 0 92 92" fill="none" xmlns="http://www.w3.org/2000/svg">
<g id="Group 20">
<path id="Vector" d="M63.5561 63.39C57.1067 76.5755 45.813 85.4471 30.8718 88.3636C28.5809 88.9249 26.2291 89.1993 23.8706 89.1806C15.2713 89.1806 7.38866 85.5976 3.562 79.7286C-1.57606 71.9104 -3.32457 55.3354 13.616 43.0743C13.9599 44.9446 14.6622 47.51 15.128 49.0292C11.8025 51.4999 9.0804 54.6923 7.16651 58.3666C4.01346 64.5581 4.36459 70.7423 8.0981 76.4609C10.6779 80.3162 14.7625 82.6595 20.0152 83.3761C26.576 84.2065 33.2318 82.9531 39.0411 79.7931C48.1491 75.0061 54.2188 69.2876 58.1887 61.4695C57.0662 60.3094 56.4017 58.782 56.3184 57.1699C56.2584 55.4399 56.8872 53.7568 58.0668 52.4899C59.2463 51.223 60.8803 50.4758 62.6102 50.4123H62.8538C64.5364 50.4039 66.1578 51.0426 67.3826 52.1963C68.6074 53.3499 69.3417 54.9303 69.4338 56.6104C69.5259 58.2904 68.9685 59.9416 67.8772 61.2222C66.7858 62.5028 65.2439 63.3149 63.5704 63.4903L63.5561 63.39ZM84.1012 48.9146C92.8509 58.8324 93.0874 70.5059 89.705 77.2778C86.5519 83.4621 78.2393 89.6535 67.0603 89.6535C61.8417 89.5471 56.708 88.3125 52.0116 86.0347C53.6526 84.8666 55.9816 82.9963 57.2643 81.8282C60.886 83.3972 64.7834 84.2303 68.73 84.279C75.9677 84.279 81.4497 80.8966 84.7174 74.7123C86.8171 70.6277 86.9389 65.8408 84.9539 60.9392C82.5182 54.772 78.184 49.5394 72.5782 45.998C65.2234 41.0401 56.5531 38.3971 47.6833 38.4092H45.5837C45.0941 39.5401 44.2976 40.5115 43.2844 41.2131C42.2712 41.9147 41.0818 42.3187 39.8508 42.3792H39.6287C37.9262 42.3582 36.2988 41.6744 35.0924 40.4729C33.8859 39.2715 33.1954 37.647 33.1674 35.9446C33.1394 34.2421 33.7762 32.5959 34.9425 31.3554C36.1088 30.1149 37.7128 29.378 39.4137 29.3011H39.6502C40.8355 29.302 41.9976 29.6295 43.009 30.2477C44.0203 30.8659 44.8417 31.7508 45.383 32.8053H47.2534C62.1587 32.8053 75.2439 38.5238 84.1012 48.9146ZM24.8021 65.3965C24.6794 64.2065 24.9677 63.0104 25.6191 62.0069C19.0836 50.6846 15.5866 36.331 20.954 21.3898C24.8021 10.1606 34.4906 2.57178 44.9961 2.57178C56.2038 2.57178 67.8772 12.3821 69.2746 31.2861C67.5261 30.7057 64.975 29.8529 63.4415 29.5376C63.0617 23.3533 57.8376 7.94631 45.4618 8.17562C41.0261 8.29745 34.4906 10.3971 31.1298 14.7111C26.9725 19.8607 24.554 26.1953 24.2217 32.8053C23.4339 41.8687 25.5604 50.947 30.2913 58.7177C30.5525 58.6223 30.8309 58.5832 31.1083 58.6031H31.3376C33.0709 58.5717 34.7457 59.2302 35.9935 60.4336C37.2413 61.6371 37.9599 63.287 37.9912 65.0203C38.0226 66.7536 37.3641 68.4283 36.1607 69.6761C34.9572 70.924 33.3074 71.6426 31.5741 71.6739H31.3376C29.6466 71.6679 28.0232 71.0096 26.8057 69.8361C25.5881 68.6626 24.8704 67.0646 24.8021 65.375V65.3965Z" fill="#764ABC"/>
</g>
</svg>
