<svg width="80" height="91" viewBox="0 0 80 91" fill="none" xmlns="http://www.w3.org/2000/svg">
<g id="css3-original">
<path id="Vector" d="M7.93033 81.0622L0.725586 0.25H79.896L72.6841 81.05L40.2628 90.0384L7.93033 81.0622Z" fill="#1572B6"/>
<path id="Vector_2" d="M40.311 83.1683L66.5094 75.9048L72.6729 6.85706H40.311V83.1683Z" fill="#33A9DC"/>
<path id="Vector_3" d="M40.311 36.1355H53.4263L54.3321 25.9862H40.311V16.0748H65.1643L64.9264 18.7341L62.4899 46.0468H40.311V36.1355Z" fill="white"/>
<path id="Vector_4" d="M40.3701 61.8759L40.3264 61.8888L29.2885 58.9084L28.5827 51.0035H18.6348L20.0228 66.566L40.3249 72.2007L40.3701 72.1878V61.8759Z" fill="#EBEBEB"/>
<path id="Vector_5" d="M52.5841 45.6276L51.3903 58.9005L40.3359 61.8844V72.1964L60.6545 66.5653L60.8036 64.8906L62.5277 45.6276H52.5841Z" fill="white"/>
<path id="Vector_6" d="M40.3446 16.0748V25.9862H16.4042L16.2057 23.759L15.7543 18.7341L15.5171 16.0748H40.3446ZM40.3109 36.1369V46.0482H29.412L29.2135 43.821L28.7614 38.7962L28.5249 36.1369H40.3109Z" fill="#EBEBEB"/>
</g>
</svg>
