<svg width="91" height="91" viewBox="0 0 91 91" fill="none" xmlns="http://www.w3.org/2000/svg">
<g id="git-original">
<path id="Vector" d="M89.2779 41.4508L49.7815 1.95588C47.5085 -0.318626 43.8194 -0.318626 41.5427 1.95588L33.3419 10.1581L43.7456 20.5618C46.1641 19.7456 48.9359 20.2931 50.8629 22.22C52.7999 24.1591 53.3431 26.9546 52.5068 29.381L62.5335 39.4085C64.9592 38.5722 67.759 39.1125 69.6953 41.0531C72.404 43.7597 72.404 48.1475 69.6953 50.8555C69.0515 51.4995 68.2872 52.0104 67.446 52.359C66.6048 52.7076 65.7032 52.887 64.7926 52.887C63.882 52.887 62.9804 52.7076 62.1392 52.359C61.298 52.0104 60.5337 51.4995 59.89 50.8555C58.9228 49.8878 58.2636 48.6556 57.9951 47.314C57.7267 45.9725 57.8612 44.5815 58.3815 43.3161L49.0312 33.9659L49.0298 58.5748C49.7082 58.9089 50.3276 59.3513 50.8636 59.8847C53.5709 62.5914 53.5709 66.9777 50.8636 69.69C48.1556 72.3967 43.7664 72.3967 41.0612 69.69C38.3538 66.9784 38.3538 62.5921 41.0612 59.8847C41.7098 59.2351 42.4813 58.7211 43.3307 58.3727V33.5359C42.4806 33.1885 41.7089 32.6741 41.0612 32.0232C39.0103 29.9737 38.5165 26.9639 39.5685 24.4444L29.3117 14.1876L2.22982 41.2681C1.13722 42.361 0.523437 43.8431 0.523438 45.3885C0.523438 46.934 1.13722 48.4161 2.22982 49.509L41.7269 89.004C44.0014 91.2785 47.689 91.2785 49.9671 89.004L89.2786 49.6925C90.371 48.5992 90.9845 47.117 90.9844 45.5715C90.9843 44.026 90.3705 42.5439 89.2779 41.4508Z" fill="#F34F29"/>
</g>
</svg>
