<svg width="93" height="92" viewBox="0 0 93 92" fill="none" xmlns="http://www.w3.org/2000/svg">
<g id="jest-plain">
<path id="Vector" d="M89.7222 45.3294C89.7222 39.8173 85.5458 35.1787 79.9391 33.8552L92.4962 0.25H30.2663L42.852 33.9612C37.4216 35.3916 33.4186 39.9492 33.4186 45.3574C33.4186 49.3317 35.61 52.8559 38.9386 55.0287C37.6258 56.7249 36.1059 58.2892 34.3839 59.7726C31.1427 62.5301 27.5482 64.6491 23.6656 66.0543C20.1614 63.9074 18.6437 60.1173 20.0152 56.7242C25.359 55.2408 29.2451 50.709 29.2451 45.3825C29.2451 38.8377 23.3747 33.5356 16.1886 33.5356C8.97523 33.5356 3.10839 38.8628 3.10839 45.4097C3.10839 48.6437 4.56668 51.6105 6.90424 53.7295C6.69929 54.1021 6.49577 54.4712 6.29083 54.8689C4.3345 58.5279 2.11446 62.6619 1.266 67.3005C-0.427341 76.5741 2.34664 84.0232 9.03399 88.2361C12.8019 90.5959 16.9503 91.7883 21.4183 91.7883C29.096 91.7883 36.8949 88.2891 44.4278 84.896C49.8023 82.4861 55.3503 79.9665 60.8115 78.749C62.8273 78.2982 64.9291 78.0324 67.1492 77.7414C71.6444 77.1588 76.2887 76.549 80.4651 74.349C85.3416 71.7793 88.6702 67.4847 89.6355 62.5559C90.3629 58.765 89.6355 54.9498 87.7652 51.6105C89.0427 49.7654 89.7261 47.5737 89.7222 45.3294ZM84.0288 45.3294C84.0288 49.0128 80.7281 52.0082 76.6693 52.0082C72.6104 52.0082 69.3097 49.0128 69.3097 45.3294C69.3097 44.1363 69.6602 42.9976 70.2729 42.0173C70.5057 41.6446 70.7996 41.2756 71.0898 40.9567C71.3974 40.6287 71.7404 40.3358 72.1124 40.0832L72.1432 40.0552C72.3754 39.8961 72.6384 39.7363 72.9014 39.5794C72.9014 39.5794 72.93 39.5794 72.93 39.5514C73.0468 39.4984 73.1644 39.4196 73.2826 39.3666C73.3105 39.3666 73.3385 39.3386 73.3686 39.3386C73.4868 39.2885 73.6323 39.2354 73.777 39.1817C73.9152 39.1334 74.0517 39.0804 74.1862 39.0226C74.2149 39.0226 74.245 38.9939 74.2729 38.9939C74.3905 38.9696 74.508 38.9158 74.6234 38.8907C74.6542 38.8907 74.7129 38.8628 74.7409 38.8628C74.8864 38.8377 75.0039 38.8098 75.1493 38.784H75.1802L75.6173 38.703C75.6474 38.703 75.7033 38.703 75.7341 38.6779C75.8516 38.6779 75.967 38.65 76.0845 38.65H76.23C76.3755 38.65 76.5238 38.6249 76.6972 38.6249H77.0777C77.1924 38.6249 77.2827 38.6249 77.3973 38.65H77.4561C77.6911 38.6786 77.9233 38.703 78.1584 38.7567C81.487 39.3916 84.0288 42.0961 84.0288 45.3294ZM38.4119 5.54929H84.3477L73.8057 33.7742C73.3686 33.8552 72.9293 33.9863 72.4929 34.1182L61.397 13.5803L50.2696 33.9856C49.8303 33.8544 49.3631 33.7735 48.898 33.6946L38.4119 5.54929ZM59.2916 43.022C58.7377 40.5303 57.3353 38.3053 55.3503 36.6621L61.397 25.5855L67.4989 36.9C65.688 38.5432 64.3745 40.6371 63.8485 43.022H59.2916ZM44.6628 38.837C44.8083 38.8083 44.9258 38.784 45.0713 38.756H45.158C45.2755 38.7309 45.3938 38.7309 45.5084 38.7023H45.626C45.7435 38.7023 45.8302 38.6772 45.9477 38.6772H47.0871C47.2018 38.6772 47.2913 38.7023 47.3781 38.7023C47.4368 38.7023 47.4648 38.7023 47.5235 38.7309C47.641 38.756 47.7278 38.756 47.846 38.784C47.8732 38.784 47.904 38.784 47.9628 38.809C48.109 38.837 48.2545 38.8621 48.3713 38.89H48.3999C48.5175 38.9151 48.635 38.9402 48.7496 38.9939C48.7805 38.9939 48.8084 39.0219 48.8672 39.0219C48.9539 39.047 49.0714 39.0749 49.1581 39.1279C49.1889 39.1279 49.2169 39.153 49.2477 39.153C49.3623 39.2068 49.4806 39.2347 49.5981 39.2877H49.626C49.7715 39.3379 49.889 39.3909 50.0066 39.4726H50.0352C50.152 39.5257 50.2696 39.6038 50.3871 39.6568C50.4157 39.6568 50.4157 39.6855 50.443 39.6855C50.5605 39.7356 50.6479 39.8166 50.7654 39.8696L50.7963 39.8947C51.146 40.1333 51.4677 40.3992 51.7866 40.6651L51.8174 40.6901C52.1091 40.9811 52.4 41.3 52.6351 41.6446C53.394 42.7052 53.8332 43.9514 53.8332 45.3029C53.8332 48.987 50.5326 51.9795 46.4737 51.9795C42.4149 51.9795 39.1142 48.987 39.1142 45.3029C39.0841 42.2015 41.4496 39.5787 44.6628 38.837ZM15.9256 38.6492C19.9851 38.6492 23.2851 41.6447 23.2851 45.328C23.2851 49.0121 19.9851 52.0067 15.9256 52.0067C11.8667 52.0067 8.56605 49.0121 8.56605 45.328C8.56605 41.6447 11.8667 38.6492 15.9256 38.6492ZM83.8525 61.6286C83.2111 65.0181 80.9015 67.9885 77.5149 69.7628C74.3317 71.4339 70.4183 71.9628 66.3007 72.4923C64.0534 72.7833 61.6879 73.1021 59.4091 73.6059C53.3352 74.9582 47.4956 77.6089 41.8301 80.1507C34.5881 83.4119 27.7524 86.4855 21.4183 86.4855C18.1177 86.4855 15.1674 85.6377 12.3655 83.8627C5.94112 79.8346 6.26001 72.2824 7.02176 68.1475C7.72117 64.2765 9.67822 60.6461 11.5478 57.1749C11.6625 56.9621 11.7521 56.7772 11.8667 56.5644C12.511 56.7772 13.1824 56.937 13.8825 57.043C12.7739 62.6612 15.9256 68.4643 22.059 71.3278L23.1697 71.8567L24.3657 71.459C29.4773 69.8158 34.2076 67.14 38.384 63.562C40.7495 61.5469 42.7653 59.3749 44.4586 57.0151C45.1301 57.1219 45.8022 57.1498 46.4737 57.1498C52.5484 57.1498 57.657 53.359 59.1182 48.2704H64.0226C65.4838 53.3848 70.5946 57.1491 76.6693 57.1491C79.0935 57.1491 81.3415 56.54 83.267 55.5066C84.0288 57.4938 84.261 59.5598 83.8525 61.6286Z" fill="#99425B"/>
</g>
</svg>
