<svg width="91" height="91" viewBox="0 0 91 91" fill="none" xmlns="http://www.w3.org/2000/svg">
<g id="photoshop-plain">
<path id="Vector" fill-rule="evenodd" clip-rule="evenodd" d="M35.7215 29.3556C33.083 28.6927 30.4409 28.9056 27.6526 29.3398C27.6526 34.2163 27.6425 38.9617 27.6791 43.7078C27.6805 43.9507 28.0453 44.3735 28.2818 44.4057C31.3223 44.8163 34.3464 44.8493 37.1899 43.4634C40.1315 42.0302 41.6299 39.0333 41.2415 35.5148C40.889 32.3109 38.9921 30.1776 35.7215 29.3556ZM90.7238 45.3696V1.88744C90.7238 0.385438 90.7403 0.25 89.282 0.25H2.2081C0.789943 0.25 0.431641 0.386155 0.431641 1.8165V88.8904C0.431641 90.3365 0.612225 90.3386 2.01462 90.3386C31.0765 90.3394 60.2251 90.3322 89.287 90.3652C90.4142 90.3666 90.7166 90.0663 90.7138 88.9613C90.6751 74.4307 90.7238 59.8987 90.7238 45.3696ZM40.0971 49.5545C36.115 50.9748 31.9622 51.0544 27.6626 50.7212V66.8942H19.78V65.8895C19.78 52.3493 19.7176 38.8105 19.6796 25.271C19.6753 24.1466 19.8538 23.6034 21.1207 23.4744C27.0915 22.8639 33.0285 22.1774 38.9656 23.5697C45.3477 25.0653 49.0275 29.2847 49.3069 35.1142C49.653 42.3333 46.4806 47.2779 40.0971 49.5545ZM71.8499 58.6941C71.546 62.8296 69.2142 65.5448 65.3897 66.8577C60.2717 68.6148 55.1816 68.207 50.1797 66.2192C49.3607 65.8931 49.2023 65.4803 49.4725 64.6455C49.9648 63.122 50.3252 61.5555 50.705 60.1409C52.8197 60.7615 54.8305 61.5362 56.9137 61.9023C58.3849 62.161 59.975 62.0091 61.4706 61.7748C62.8113 61.5641 63.7759 60.654 63.9959 59.2151C64.2195 57.7525 63.7787 56.4855 62.4874 55.7073C61.4613 55.0896 60.3304 54.6474 59.2462 54.1293C57.5027 53.2959 55.6446 52.6424 54.0365 51.5997C47.7082 47.4957 49.7684 39.8596 53.9914 36.9839C56.2508 35.446 58.751 34.7638 61.4276 34.6699C64.5756 34.5596 67.6068 35.1028 70.5843 36.5496L69.0114 42.1312C67.7645 41.6898 66.6036 41.1165 65.3782 40.8886C63.9242 40.6178 62.3993 40.4666 60.9317 40.5862C58.9639 40.7475 57.8116 42.1054 57.8116 43.7895C57.8116 44.787 58.19 45.6311 59.0219 46.1148C60.2158 46.8092 61.4827 47.3818 62.7382 47.963C64.0969 48.5914 65.5316 49.0744 66.8394 49.7917C70.3292 51.7051 72.1458 54.6646 71.8499 58.6941Z" fill="#80B5E2"/>
</g>
</svg>
