<svg width="91" height="81" viewBox="0 0 91 81" fill="none" xmlns="http://www.w3.org/2000/svg">
<g id="react-original">
<g id="Group">
<path id="Vector" d="M45.7186 48.4774C50.2304 48.4774 53.8879 44.8199 53.8879 40.3081C53.8879 35.7963 50.2304 32.1388 45.7186 32.1388C41.2068 32.1388 37.5493 35.7963 37.5493 40.3081C37.5493 44.8199 41.2068 48.4774 45.7186 48.4774Z" fill="#61DAFB"/>
<path id="Vector_2" d="M76.7473 26.836C75.1708 26.2627 73.5226 25.6895 71.8027 25.1878C72.2327 23.468 72.591 21.7481 72.8776 20.0999C74.3825 10.6408 72.7343 3.97634 68.148 1.39657C66.7865 0.608302 65.2816 0.25 63.5618 0.25C58.5455 0.25 52.1678 3.97634 45.7183 10.2108C39.2689 3.97634 32.8911 0.25 27.8749 0.25C26.155 0.25 24.6502 0.608302 23.2886 1.39657C18.7023 4.048 17.0541 10.7124 18.559 20.0999C18.8457 21.7481 19.204 23.468 19.6339 25.1878C17.9141 25.6895 16.2659 26.1911 14.6894 26.836C5.7318 30.2757 0.858887 35.0053 0.858887 40.3082C0.858887 45.6111 5.80346 50.3406 14.6894 53.7803C16.2659 54.3536 17.9141 54.9269 19.6339 55.4285C19.204 57.1484 18.8457 58.8682 18.559 60.5164C17.0541 69.9756 18.7023 76.64 23.2886 79.2198C24.6502 80.0081 26.155 80.3664 27.8749 80.3664C32.9628 80.3664 39.3405 76.64 45.7183 70.4056C52.1678 76.64 58.5455 80.3664 63.5618 80.3664C65.2816 80.3664 66.7865 80.0081 68.148 79.2198C72.7343 76.5684 74.3825 69.9039 72.8776 60.5164C72.591 58.8682 72.2327 57.1484 71.8027 55.4285C73.5226 54.9269 75.1708 54.4253 76.7473 53.7803C85.7048 50.3406 90.5778 45.6111 90.5778 40.3082C90.5778 35.0053 85.7048 30.2757 76.7473 26.836ZM66.1415 4.97959C69.0796 6.69944 70.0829 12.0023 68.8646 19.5267C68.6497 21.0315 68.2914 22.6081 67.8614 24.2562C64.1351 23.3963 60.1937 22.823 56.0374 22.4647C53.601 19.025 51.0928 15.9436 48.5847 13.1489C53.8876 7.91767 59.2621 4.33464 63.6334 4.33464C64.565 4.33464 65.4249 4.54963 66.1415 4.97959ZM58.1156 47.4742C56.8257 49.7674 55.3208 52.0605 53.7443 54.3536C51.0928 54.5686 48.4414 54.6403 45.7183 54.6403C42.9236 54.6403 40.2721 54.5686 37.6923 54.3536C36.1158 52.0605 34.6826 49.7674 33.3927 47.4742C32.0312 45.1094 30.7413 42.673 29.5947 40.3082C30.7413 37.9434 32.0312 35.5069 33.3927 33.1421C34.6826 30.849 36.1875 28.5559 37.764 26.2627C40.4154 26.0478 43.0669 25.9761 45.79 25.9761C48.5847 25.9761 51.2362 26.0478 53.8159 26.2627C55.3925 28.5559 56.8257 30.849 58.1156 33.1421C59.4771 35.5069 60.767 37.9434 61.9136 40.3082C60.6953 42.673 59.4771 45.0378 58.1156 47.4742ZM64.0634 45.1094C65.1383 47.6175 65.9982 50.054 66.7865 52.4905C64.35 53.0637 61.7703 53.4937 59.0472 53.852C59.9071 52.4905 60.8387 51.0573 61.6269 49.5524C62.4869 48.0475 63.2751 46.5426 64.0634 45.1094ZM45.7183 64.5294C43.9985 62.6662 42.3503 60.6597 40.7737 58.5816C42.4219 58.6533 44.0701 58.7249 45.7183 58.7249C47.3665 58.7249 49.0147 58.6533 50.6629 58.5816C49.0864 60.6597 47.4382 62.6662 45.7183 64.5294ZM32.3895 53.7803C29.6664 53.422 27.0866 52.9921 24.6501 52.4188C25.4384 50.054 26.2983 47.5459 27.3732 45.0378C28.1615 46.471 28.9498 47.9758 29.8097 49.4091C30.6696 50.9856 31.5296 52.3471 32.3895 53.7803ZM27.3732 35.5069C26.2983 32.9988 25.4384 30.5624 24.6501 28.1259C27.0866 27.5526 29.6664 27.1227 32.3895 26.7644C31.5296 28.1259 30.598 29.5591 29.8097 31.064C28.9498 32.5689 28.1615 34.0737 27.3732 35.5069ZM45.7183 16.087C47.4382 17.9501 49.0864 19.9566 50.6629 22.0348C49.0147 21.9631 47.3665 21.8915 45.7183 21.8915C44.0701 21.8915 42.4219 21.9631 40.7737 22.0348C42.3503 19.9566 43.9985 17.9501 45.7183 16.087ZM61.6269 31.1356L59.0472 26.836C61.7703 27.1943 64.35 27.6243 66.7865 28.1976C65.9982 30.5624 65.1383 33.0705 64.0634 35.5786C63.2751 34.0737 62.4869 32.5689 61.6269 31.1356ZM22.572 19.5267C21.3538 12.0023 22.357 6.69944 25.2951 4.97959C26.0117 4.54963 26.8716 4.33464 27.8032 4.33464C32.1028 4.33464 37.4774 7.84601 42.8519 13.1489C40.3438 15.872 37.8357 19.025 35.3992 22.4647C31.2429 22.823 27.3016 23.468 23.5752 24.2562C23.1453 22.6081 22.8586 21.0315 22.572 19.5267ZM4.87187 40.3082C4.87187 36.9401 8.95652 33.3571 16.1226 30.7057C17.5558 30.1324 19.1323 29.6308 20.7088 29.2008C21.8554 32.7838 23.2886 36.5818 25.0085 40.3798C23.2886 44.1778 21.7837 47.9042 20.7088 51.4872C10.8197 48.6208 4.87187 44.3212 4.87187 40.3082ZM25.2951 75.6368C22.357 73.9169 21.3538 68.6141 22.572 61.0897C22.787 59.5848 23.1453 58.0083 23.5752 56.3601C27.3016 57.22 31.2429 57.7933 35.3992 58.1516C37.8357 61.5913 40.3438 64.6727 42.8519 67.4675C37.549 72.6987 32.1745 76.2817 27.8032 76.2817C26.8716 76.2817 26.0117 76.0667 25.2951 75.6368ZM68.8646 61.0897C70.0829 68.6141 69.0796 73.9169 66.1415 75.6368C65.4249 76.0667 64.565 76.2817 63.6334 76.2817C59.3338 76.2817 53.9593 72.7704 48.5847 67.4675C51.0928 64.7444 53.601 61.5913 56.0374 58.1516C60.1937 57.7933 64.1351 57.1484 67.8614 56.3601C68.2914 58.0083 68.578 59.5848 68.8646 61.0897ZM75.3141 49.9107C73.8809 50.484 72.3043 50.9856 70.7278 51.4156C69.5812 47.8325 68.148 44.0345 66.4282 40.2365C68.148 36.4385 69.6529 32.7122 70.7278 29.1292C80.617 31.9956 86.5648 36.2952 86.5648 40.3082C86.5648 43.6762 82.4085 47.2592 75.3141 49.9107Z" fill="#61DAFB"/>
</g>
</g>
</svg>
